<mxfile host="app.diagrams.net" modified="2024-07-03T19:47:27.694Z" agent="Mozilla/5.0 (Macintosh; Intel Mac OS X 10_15_7) AppleWebKit/537.36 (KHTML, like Gecko) Chrome/126.0.0.0 Safari/537.36" version="24.6.4" etag="UlZcZ95SRypjsrOQjqEv" type="device">
  <diagram name="Page-1" id="UadqLyGH-1LmzfzqMhxb">
    <mxGraphModel dx="954" dy="640" grid="1" gridSize="10" guides="1" tooltips="1" connect="1" arrows="1" fold="1" page="1" pageScale="1" pageWidth="1654" pageHeight="1169" math="0" shadow="0">
      <root>
        <mxCell id="0" />
        <mxCell id="1" parent="0" />
        <mxCell id="Dy-7nTX9lHytEVIYusi8-2" value="user (signed in)" style="ellipse;whiteSpace=wrap;html=1;fillColor=#dae8fc;strokeColor=#6c8ebf;" parent="1" vertex="1">
          <mxGeometry x="30" y="430" width="80" height="80" as="geometry" />
        </mxCell>
        <mxCell id="Dy-7nTX9lHytEVIYusi8-3" value="user (signed out)" style="ellipse;whiteSpace=wrap;html=1;fillColor=#f8cecc;strokeColor=#b85450;" parent="1" vertex="1">
          <mxGeometry x="50" y="80" width="80" height="80" as="geometry" />
        </mxCell>
        <mxCell id="Dy-7nTX9lHytEVIYusi8-4" value="" style="endArrow=none;html=1;rounded=0;" parent="1" edge="1">
          <mxGeometry width="50" height="50" relative="1" as="geometry">
            <mxPoint x="160" y="760" as="sourcePoint" />
            <mxPoint x="170" y="40" as="targetPoint" />
          </mxGeometry>
        </mxCell>
        <mxCell id="Dy-7nTX9lHytEVIYusi8-5" value="" style="endArrow=none;html=1;rounded=0;" parent="1" edge="1">
          <mxGeometry width="50" height="50" relative="1" as="geometry">
            <mxPoint x="1270" y="740" as="sourcePoint" />
            <mxPoint x="1260" y="40" as="targetPoint" />
          </mxGeometry>
        </mxCell>
        <mxCell id="FsK70IoP0cF0Igz_-wLu-2" value="admin" style="ellipse;whiteSpace=wrap;html=1;aspect=fixed;fillColor=#d5e8d4;strokeColor=#82b366;" vertex="1" parent="1">
          <mxGeometry x="1300" y="250" width="80" height="80" as="geometry" />
        </mxCell>
        <mxCell id="FsK70IoP0cF0Igz_-wLu-4" value="login" style="ellipse;whiteSpace=wrap;html=1;fillColor=#f8cecc;strokeColor=#b85450;" vertex="1" parent="1">
          <mxGeometry x="220" y="10" width="100" height="60" as="geometry" />
        </mxCell>
        <mxCell id="FsK70IoP0cF0Igz_-wLu-5" value="create account" style="ellipse;whiteSpace=wrap;html=1;fillColor=#f8cecc;strokeColor=#b85450;" vertex="1" parent="1">
          <mxGeometry x="220" y="100" width="100" height="60" as="geometry" />
        </mxCell>
        <mxCell id="FsK70IoP0cF0Igz_-wLu-6" value="browse goods" style="ellipse;whiteSpace=wrap;html=1;fillColor=#f5f5f5;fontColor=#333333;strokeColor=#666666;" vertex="1" parent="1">
          <mxGeometry x="220" y="200" width="100" height="60" as="geometry" />
        </mxCell>
        <mxCell id="FsK70IoP0cF0Igz_-wLu-7" value="" style="endArrow=none;html=1;rounded=0;exitX=1;exitY=0.5;exitDx=0;exitDy=0;entryX=0;entryY=0.5;entryDx=0;entryDy=0;" edge="1" parent="1" source="Dy-7nTX9lHytEVIYusi8-3" target="FsK70IoP0cF0Igz_-wLu-4">
          <mxGeometry width="50" height="50" relative="1" as="geometry">
            <mxPoint x="390" y="340" as="sourcePoint" />
            <mxPoint x="440" y="290" as="targetPoint" />
          </mxGeometry>
        </mxCell>
        <mxCell id="FsK70IoP0cF0Igz_-wLu-8" value="" style="endArrow=none;html=1;rounded=0;exitX=1;exitY=0.5;exitDx=0;exitDy=0;entryX=0;entryY=0.5;entryDx=0;entryDy=0;" edge="1" parent="1" source="Dy-7nTX9lHytEVIYusi8-3" target="FsK70IoP0cF0Igz_-wLu-5">
          <mxGeometry width="50" height="50" relative="1" as="geometry">
            <mxPoint x="390" y="340" as="sourcePoint" />
            <mxPoint x="440" y="290" as="targetPoint" />
          </mxGeometry>
        </mxCell>
        <mxCell id="FsK70IoP0cF0Igz_-wLu-9" value="" style="endArrow=none;html=1;rounded=0;exitX=1;exitY=0.5;exitDx=0;exitDy=0;entryX=0;entryY=0.5;entryDx=0;entryDy=0;" edge="1" parent="1" source="Dy-7nTX9lHytEVIYusi8-3" target="FsK70IoP0cF0Igz_-wLu-6">
          <mxGeometry width="50" height="50" relative="1" as="geometry">
            <mxPoint x="390" y="340" as="sourcePoint" />
            <mxPoint x="440" y="290" as="targetPoint" />
          </mxGeometry>
        </mxCell>
        <mxCell id="FsK70IoP0cF0Igz_-wLu-10" value="" style="endArrow=none;html=1;rounded=0;exitX=1;exitY=0.5;exitDx=0;exitDy=0;entryX=0;entryY=0.5;entryDx=0;entryDy=0;" edge="1" parent="1" source="Dy-7nTX9lHytEVIYusi8-2" target="FsK70IoP0cF0Igz_-wLu-6">
          <mxGeometry width="50" height="50" relative="1" as="geometry">
            <mxPoint x="390" y="340" as="sourcePoint" />
            <mxPoint x="440" y="290" as="targetPoint" />
          </mxGeometry>
        </mxCell>
        <mxCell id="FsK70IoP0cF0Igz_-wLu-12" value="trade url" style="ellipse;whiteSpace=wrap;html=1;fillColor=#f8cecc;strokeColor=#b85450;" vertex="1" parent="1">
          <mxGeometry x="460" y="190" width="96" height="50" as="geometry" />
        </mxCell>
        <mxCell id="FsK70IoP0cF0Igz_-wLu-13" value="email" style="ellipse;whiteSpace=wrap;html=1;fillColor=#f8cecc;strokeColor=#b85450;" vertex="1" parent="1">
          <mxGeometry x="470" y="100" width="86" height="60" as="geometry" />
        </mxCell>
        <mxCell id="FsK70IoP0cF0Igz_-wLu-14" value="username and password" style="ellipse;whiteSpace=wrap;html=1;fillColor=#f8cecc;strokeColor=#b85450;" vertex="1" parent="1">
          <mxGeometry x="463" y="30" width="100" height="60" as="geometry" />
        </mxCell>
        <mxCell id="FsK70IoP0cF0Igz_-wLu-15" value="" style="endArrow=classic;html=1;rounded=0;exitX=1;exitY=0.5;exitDx=0;exitDy=0;entryX=0;entryY=0.5;entryDx=0;entryDy=0;" edge="1" parent="1" source="FsK70IoP0cF0Igz_-wLu-5" target="FsK70IoP0cF0Igz_-wLu-14">
          <mxGeometry width="50" height="50" relative="1" as="geometry">
            <mxPoint x="430" y="290" as="sourcePoint" />
            <mxPoint x="480" y="240" as="targetPoint" />
          </mxGeometry>
        </mxCell>
        <mxCell id="FsK70IoP0cF0Igz_-wLu-16" value="" style="endArrow=classic;html=1;rounded=0;exitX=0.99;exitY=0.617;exitDx=0;exitDy=0;exitPerimeter=0;entryX=0;entryY=0.5;entryDx=0;entryDy=0;" edge="1" parent="1" source="FsK70IoP0cF0Igz_-wLu-5" target="FsK70IoP0cF0Igz_-wLu-12">
          <mxGeometry width="50" height="50" relative="1" as="geometry">
            <mxPoint x="430" y="290" as="sourcePoint" />
            <mxPoint x="480" y="240" as="targetPoint" />
          </mxGeometry>
        </mxCell>
        <mxCell id="FsK70IoP0cF0Igz_-wLu-17" value="" style="endArrow=classic;html=1;rounded=0;exitX=1;exitY=0.5;exitDx=0;exitDy=0;entryX=0;entryY=0.5;entryDx=0;entryDy=0;" edge="1" parent="1" source="FsK70IoP0cF0Igz_-wLu-5" target="FsK70IoP0cF0Igz_-wLu-13">
          <mxGeometry width="50" height="50" relative="1" as="geometry">
            <mxPoint x="430" y="290" as="sourcePoint" />
            <mxPoint x="480" y="240" as="targetPoint" />
          </mxGeometry>
        </mxCell>
        <mxCell id="FsK70IoP0cF0Igz_-wLu-26" value="Includes" style="text;strokeColor=none;fillColor=none;spacingLeft=4;spacingRight=4;overflow=hidden;rotatable=0;points=[[0,0.5],[1,0.5]];portConstraint=eastwest;fontSize=12;whiteSpace=wrap;html=1;" vertex="1" parent="1">
          <mxGeometry x="380" y="100" width="60" height="30" as="geometry" />
        </mxCell>
        <mxCell id="FsK70IoP0cF0Igz_-wLu-27" value="Includes" style="text;strokeColor=none;fillColor=none;spacingLeft=4;spacingRight=4;overflow=hidden;rotatable=0;points=[[0,0.5],[1,0.5]];portConstraint=eastwest;fontSize=12;whiteSpace=wrap;html=1;" vertex="1" parent="1">
          <mxGeometry x="380" y="150" width="60" height="30" as="geometry" />
        </mxCell>
        <mxCell id="FsK70IoP0cF0Igz_-wLu-28" value="Includes" style="text;strokeColor=none;fillColor=none;spacingLeft=4;spacingRight=4;overflow=hidden;rotatable=0;points=[[0,0.5],[1,0.5]];portConstraint=eastwest;fontSize=12;whiteSpace=wrap;html=1;" vertex="1" parent="1">
          <mxGeometry x="360" y="60" width="60" height="30" as="geometry" />
        </mxCell>
        <mxCell id="FsK70IoP0cF0Igz_-wLu-29" value="facilitate transaction" style="ellipse;whiteSpace=wrap;html=1;fillColor=#d5e8d4;strokeColor=#82b366;" vertex="1" parent="1">
          <mxGeometry x="1040" y="250" width="100" height="60" as="geometry" />
        </mxCell>
        <mxCell id="FsK70IoP0cF0Igz_-wLu-30" value="" style="endArrow=none;html=1;rounded=0;entryX=0;entryY=0.5;entryDx=0;entryDy=0;exitX=1;exitY=0.5;exitDx=0;exitDy=0;" edge="1" parent="1" source="FsK70IoP0cF0Igz_-wLu-29" target="FsK70IoP0cF0Igz_-wLu-2">
          <mxGeometry width="50" height="50" relative="1" as="geometry">
            <mxPoint x="1140" y="340" as="sourcePoint" />
            <mxPoint x="1190" y="290" as="targetPoint" />
          </mxGeometry>
        </mxCell>
        <mxCell id="FsK70IoP0cF0Igz_-wLu-31" value="remove skin listing" style="ellipse;whiteSpace=wrap;html=1;fillColor=#d5e8d4;strokeColor=#82b366;" vertex="1" parent="1">
          <mxGeometry x="1090" y="530" width="100" height="70" as="geometry" />
        </mxCell>
        <mxCell id="FsK70IoP0cF0Igz_-wLu-32" value="edit transaction info" style="ellipse;whiteSpace=wrap;html=1;fillColor=#d5e8d4;strokeColor=#82b366;" vertex="1" parent="1">
          <mxGeometry x="1030" y="350" width="100" height="60" as="geometry" />
        </mxCell>
        <mxCell id="FsK70IoP0cF0Igz_-wLu-33" value="create skin listing" style="ellipse;whiteSpace=wrap;html=1;fillColor=#d5e8d4;strokeColor=#82b366;" vertex="1" parent="1">
          <mxGeometry x="1040" y="440" width="90" height="60" as="geometry" />
        </mxCell>
      </root>
    </mxGraphModel>
  </diagram>
</mxfile>
